<svg width="171" height="170" xmlns="http://www.w3.org/2000/svg" version="1.1">

 <g>
  <title>Layer 1</title>
  <svg y="-57" x="-60.94941" id="svg_1" viewBox="0 0 32 32" height="288" width="288" xmlns="http://www.w3.org/2000/svg">
   <g id="svg_2" class="color000 svgShape" fill="#ffbf66" transform="matrix(1.33333 0 0 -1.33333 0 32)">
    <path id="svg_3" class="colorStroke333 svgStroke" d="m12.14991,18.80552a6.66531,6.66531 0 0 0 4.78449,-2.01429a6.66531,6.66531 0 0 0 -0.12335,-9.42538a6.66531,6.66531 0 0 0 -8.1662,-0.87911l0.063,-0.06118l-2.61527,-0.93711l1.00812,2.31482a6.66531,6.66531 0 0 0 0.4083,9.11133a6.66531,6.66531 0 0 0 4.64088,1.89092l0.00003,0z" stroke-width="0.774" stroke-linejoin="round" stroke-linecap="round" stroke="#f7feff" fill="none"/>
    <circle id="svg_4" class="color333 svgShape" transform="scale(1 -1)" fill="#f7feff" r="0.7" cy="-12.037" cx="9.636"/>
    <circle id="svg_5" class="color333 svgShape" transform="scale(1 -1)" fill="#f7feff" r="0.7" cy="-12.037" cx="12.275"/>
    <circle id="svg_6" class="color333 svgShape" transform="scale(1 -1)" fill="#f7feff" r="0.7" cy="-12.037" cx="14.914"/>
   </g>
  </svg>
 </g>
</svg>