<svg width="48" height="46" viewBox="0 0 48 46" fill="none" xmlns="http://www.w3.org/2000/svg">
<path d="M40.5609 6.76724C36.6676 2.9813 31.5291 0.62631 26.0313 0.108287C20.5335 -0.409736 15.0208 0.941668 10.4438 3.92952C5.86669 6.91736 2.51204 11.3544 0.95816 16.4757C-0.595725 21.597 -0.251472 27.0816 1.93157 31.984C2.1591 32.4396 2.23376 32.9525 2.14512 33.4511L0.0570517 43.1481C-0.0233956 43.5199 -0.00696808 43.9052 0.104858 44.2693C0.216684 44.6334 0.420404 44.965 0.69771 45.2342C0.925035 45.4523 1.1957 45.6236 1.49339 45.7378C1.79109 45.8521 2.10964 45.9069 2.42986 45.899H2.90442L13.06 43.9275C13.5762 43.8676 14.0996 43.9387 14.5786 44.1339C19.6529 46.243 25.3298 46.5755 30.6307 45.0743C35.9315 43.573 40.5242 40.332 43.6168 35.91C46.7094 31.488 48.1082 26.1621 47.572 20.8505C47.0358 15.5389 44.5982 10.5745 40.6795 6.81309L40.5609 6.76724ZM14.2939 25.2672C13.8246 25.2672 13.3658 25.1327 12.9756 24.8808C12.5854 24.6289 12.2813 24.2709 12.1017 23.852C11.9221 23.4331 11.8751 22.9722 11.9667 22.5275C12.0582 22.0828 12.2842 21.6743 12.6161 21.3537C12.9479 21.0331 13.3707 20.8148 13.831 20.7263C14.2913 20.6379 14.7684 20.6833 15.2019 20.8568C15.6355 21.0303 16.0061 21.3241 16.2668 21.7011C16.5275 22.0781 16.6667 22.5213 16.6667 22.9747C16.6667 23.5827 16.4167 24.1658 15.9717 24.5957C15.5267 25.0256 14.9232 25.2672 14.2939 25.2672ZM23.7851 25.2672C23.3158 25.2672 22.8571 25.1327 22.4669 24.8808C22.0767 24.6289 21.7725 24.2709 21.5929 23.852C21.4134 23.4331 21.3664 22.9722 21.4579 22.5275C21.5495 22.0828 21.7755 21.6743 22.1073 21.3537C22.4392 21.0331 22.8619 20.8148 23.3222 20.7263C23.7825 20.6379 24.2596 20.6833 24.6932 20.8568C25.1267 21.0303 25.4973 21.3241 25.7581 21.7011C26.0188 22.0781 26.1579 22.5213 26.1579 22.9747C26.1579 23.5827 25.908 24.1658 25.463 24.5957C25.018 25.0256 24.4144 25.2672 23.7851 25.2672ZM33.2764 25.2672C32.8071 25.2672 32.3483 25.1327 31.9581 24.8808C31.5679 24.6289 31.2638 24.2709 31.0842 23.852C30.9046 23.4331 30.8576 22.9722 30.9492 22.5275C31.0407 22.0828 31.2667 21.6743 31.5985 21.3537C31.9304 21.0331 32.3532 20.8148 32.8135 20.7263C33.2737 20.6379 33.7508 20.6833 34.1844 20.8568C34.618 21.0303 34.9886 21.3241 35.2493 21.7011C35.51 22.0781 35.6492 22.5213 35.6492 22.9747C35.6492 23.5827 35.3992 24.1658 34.9542 24.5957C34.5092 25.0256 33.9057 25.2672 33.2764 25.2672Z" fill="white" fill-opacity="0.7"/>
</svg>
