<svg width="48" height="51" viewBox="0 0 48 51" fill="none" xmlns="http://www.w3.org/2000/svg">
<path d="M47.344 40.3931C45.7943 39.0604 44.4375 37.5325 43.3102 35.8507C42.0796 33.5292 41.342 30.994 41.1407 28.3938V20.7353C41.1513 16.6512 39.6156 12.7039 36.8221 9.63508C34.0286 6.56626 30.1696 4.58713 25.9701 4.06954V2.06965C25.9701 1.52075 25.744 0.994322 25.3417 0.606187C24.9393 0.218052 24.3937 0 23.8246 0C23.2556 0 22.71 0.218052 22.3076 0.606187C21.9053 0.994322 21.6792 1.52075 21.6792 2.06965V4.10055C17.5174 4.65544 13.705 6.64654 10.9481 9.70505C8.19132 12.7636 6.6769 16.6822 6.68537 20.7353V28.3938C6.48409 30.994 5.74649 33.5292 4.51584 35.8507C3.40838 37.5287 2.07342 39.0563 0.5464 40.3931C0.374977 40.5384 0.23759 40.7172 0.143378 40.9177C0.0491656 41.1182 0.000288943 41.3357 0 41.5558V43.6642C0 44.0754 0.169315 44.4697 0.470697 44.7605C0.772079 45.0512 1.18084 45.2145 1.60706 45.2145H46.2833C46.7095 45.2145 47.1183 45.0512 47.4197 44.7605C47.721 44.4697 47.8904 44.0754 47.8904 43.6642V41.5558C47.8901 41.3357 47.8412 41.1182 47.747 40.9177C47.6528 40.7172 47.5154 40.5384 47.344 40.3931ZM3.34268 42.1139C4.8379 40.7205 6.15439 39.1591 7.26391 37.463C8.8141 34.6593 9.71858 31.5657 9.91555 28.3938V20.7353C9.85182 18.9184 10.1677 17.1077 10.8445 15.411C11.5213 13.7144 12.545 12.1664 13.8549 10.8594C15.1647 9.55236 16.7337 8.51296 18.4686 7.80309C20.2035 7.09322 22.0687 6.72739 23.9532 6.72739C25.8377 6.72739 27.7029 7.09322 29.4378 7.80309C31.1727 8.51296 32.7418 9.55236 34.0516 10.8594C35.3614 12.1664 36.3852 13.7144 37.0619 15.411C37.7387 17.1077 38.0546 18.9184 37.9909 20.7353V28.3938C38.1879 31.5657 39.0923 34.6593 40.6425 37.463C41.752 39.1591 43.0685 40.7205 44.5637 42.1139H3.34268Z" fill="white" fill-opacity="0.7"/>
<path d="M24.0254 50.3926C25.0378 50.3701 26.0093 50.003 26.768 49.3561C27.5268 48.7092 28.024 47.8243 28.1716 46.8579H19.7185C19.8703 47.8506 20.3908 48.7563 21.183 49.4065C21.9753 50.0567 22.9854 50.4071 24.0254 50.3926Z" fill="white" fill-opacity="0.7"/>
</svg>
