<svg width="48" height="46" viewBox="0 0 48 46" fill="none" xmlns="http://www.w3.org/2000/svg">
<path d="M26.4122 4.19778e-06C27.1131 4.19778e-06 27.7401 0.420899 27.9761 1.05109L29.6593 5.55214C30.2625 5.69704 30.7799 5.84193 31.2186 5.99373C31.6978 6.15933 32.3152 6.41003 33.0782 6.75272L36.9977 4.75175C37.3176 4.58823 37.6838 4.52921 38.0415 4.58354C38.3991 4.63786 38.7289 4.8026 38.9813 5.05304L42.4287 8.4915C42.8864 8.9492 43.0152 9.61849 42.7577 10.2027L40.9195 14.3587C41.2247 14.8992 41.4679 15.3615 41.6539 15.7479C41.8541 16.1688 42.1021 16.7484 42.3977 17.4959L46.682 19.2669C47.3257 19.5314 47.7238 20.1524 47.6809 20.8171L47.3662 25.5895C47.3447 25.8995 47.2293 26.1967 47.0343 26.444C46.8394 26.6914 46.5734 26.8781 46.2695 26.981L42.2117 28.3725C42.0949 28.913 41.9733 29.3752 41.8446 29.7662C41.6369 30.3701 41.3998 30.9641 41.1341 31.5464L43.1725 35.8934C43.3164 36.1988 43.3551 36.5406 43.2831 36.8688C43.211 37.197 43.0319 37.4943 42.772 37.7172L38.8954 41.0568C38.6401 41.2758 38.3215 41.4143 37.9824 41.4538C37.6432 41.4932 37.2996 41.4318 36.9977 41.2776L33.0019 39.2352C32.3767 39.5546 31.7318 39.8364 31.0707 40.0793L29.3256 40.7095L27.7759 44.8495C27.661 45.1526 27.4539 45.4152 27.1816 45.6028C26.9093 45.7904 26.5846 45.8942 26.25 45.9005L21.7202 45.9994C21.3768 46.0081 21.0391 45.9139 20.7534 45.7298C20.4678 45.5457 20.2483 45.2807 20.1252 44.9714L18.299 40.3093C17.6759 40.1039 17.059 39.8815 16.4489 39.6423C15.95 39.434 15.4585 39.2092 14.9755 38.9684L10.4457 40.836C10.1472 40.9588 9.81818 40.9953 9.4986 40.941C9.17902 40.8867 8.88269 40.744 8.6457 40.5301L5.29362 37.4964C5.04406 37.2716 4.87409 36.9767 4.80778 36.6535C4.74146 36.3303 4.78215 35.9952 4.92409 35.6956L6.87191 31.6016C6.61286 31.1167 6.37269 30.6226 6.15191 30.1204C5.89419 29.5057 5.65567 28.8837 5.43667 28.2552L1.1691 27.0017C0.822208 26.9005 0.519647 26.6917 0.308403 26.4077C0.0971592 26.1236 -0.0109462 25.7802 0.000876091 25.4308L0.167765 21.0125C0.179644 20.7243 0.272992 20.4446 0.437714 20.2038C0.602436 19.963 0.832263 19.7703 1.10234 19.6464L5.57972 17.5718C5.78714 16.8381 5.96833 16.2677 6.12807 15.8514C6.35299 15.2954 6.60276 14.749 6.87668 14.2138L4.93601 10.2579C4.78873 9.95746 4.744 9.61973 4.80826 9.29324C4.87252 8.96675 5.04246 8.66833 5.29362 8.4409L8.64093 5.39114C8.87558 5.17764 9.16918 5.0341 9.4864 4.97779C9.80363 4.92148 10.131 4.9548 10.429 5.07374L14.9541 6.87692C15.4547 6.55492 15.9077 6.29503 16.3178 6.08573C16.8065 5.83503 17.4598 5.57284 18.2823 5.28994L19.8558 1.05569C19.9722 0.745813 20.1848 0.478125 20.4647 0.289182C20.7446 0.100239 21.0782 -0.000750368 21.4198 4.19778e-06H26.4122ZM25.2439 3.16707H22.5904L21.148 7.06322C21.0632 7.2904 20.926 7.49603 20.7468 7.66456C20.5675 7.8331 20.3509 7.96015 20.1133 8.03611C19.0738 8.3696 18.3228 8.6571 17.8842 8.8802C17.4193 9.11709 16.8256 9.47819 16.1199 9.96118C15.8889 10.1176 15.6208 10.2151 15.3403 10.2449C15.0598 10.2747 14.7761 10.2356 14.5154 10.1314L10.1525 8.3949L8.45258 9.94508L10.224 13.556C10.4386 13.993 10.4338 14.499 10.2097 14.9291C9.73286 15.8514 9.411 16.5322 9.24888 16.9508C9.08676 17.3671 8.86981 18.0824 8.60517 19.0714C8.54527 19.2955 8.43527 19.5043 8.28289 19.6831C8.1305 19.8619 7.93942 20.0063 7.72304 20.1064L3.45547 22.082L3.36964 24.336L7.23191 25.4676C7.7445 25.6171 8.1498 25.9966 8.31907 26.4842C8.70053 27.5882 9.0057 28.4024 9.22504 28.913C9.51567 29.5609 9.83707 30.1956 10.1882 30.815C10.429 31.2474 10.4457 31.7626 10.2335 32.2088L8.44305 35.9762L10.1382 37.5125L14.3867 35.76C14.6155 35.6656 14.8633 35.6216 15.1119 35.6312C15.3606 35.6407 15.6039 35.7036 15.8243 35.8152C16.6945 36.2568 17.343 36.5627 17.753 36.7306C18.1703 36.8985 18.9689 37.1791 20.1276 37.5608C20.3576 37.6366 20.5675 37.7604 20.7422 37.9234C20.917 38.0864 21.0523 38.2846 21.1385 38.5038L22.8264 42.8071L25.0341 42.7611L26.4575 38.9569C26.5389 38.7399 26.6682 38.5425 26.8366 38.3784C27.005 38.2144 27.2084 38.0877 27.4326 38.007L29.9049 37.1147C30.5295 36.8916 31.2877 36.5397 32.1722 36.0567C32.417 35.924 32.6924 35.8528 32.9732 35.8496C33.254 35.8463 33.5311 35.9112 33.7791 36.0383L37.5389 37.9587L39.6536 36.1395L37.8035 32.1996C37.7085 31.9974 37.6591 31.7779 37.6587 31.5559C37.6583 31.3338 37.7068 31.1142 37.8011 30.9116C38.235 29.9755 38.5283 29.2694 38.6761 28.8187C38.8215 28.3771 38.9717 27.74 39.1171 26.9212C39.1672 26.6431 39.2932 26.3828 39.4822 26.1674C39.6712 25.9519 39.9163 25.7889 40.1924 25.6953L44.1214 24.3498L44.2931 21.7278L40.4308 20.1317C40.2252 20.0472 40.0395 19.9233 39.885 19.7676C39.7305 19.6118 39.6104 19.4274 39.532 19.2255C39.2565 18.4923 38.956 17.7682 38.6308 17.0543C38.3229 16.4327 37.9888 15.8235 37.6295 15.2281C37.5049 15.0178 37.4326 14.7825 37.4181 14.5407C37.4037 14.2989 37.4474 14.0571 37.546 13.8343L39.2745 9.92438L37.453 8.10741L33.9055 9.91978C33.6739 10.0383 33.4167 10.1027 33.1546 10.1079C32.8925 10.1131 32.6328 10.0589 32.3963 9.94968C31.6433 9.58851 30.8732 9.26155 30.0885 8.9699C29.4194 8.75312 28.737 8.57646 28.0453 8.4409C27.7708 8.38476 27.5157 8.26222 27.3038 8.08479C27.0919 7.90736 26.9303 7.68087 26.8342 7.42661L25.2416 3.16477L25.2439 3.16707ZM23.8993 12.9741C29.7046 12.9741 34.4133 17.466 34.4133 23.0043C34.4133 28.5427 29.7046 33.0322 23.8993 33.0322C18.0916 33.0322 13.3853 28.5427 13.3853 23.0043C13.3853 17.466 18.0916 12.9764 23.8993 12.9764V12.9741ZM23.8993 16.1435C19.925 16.1435 16.704 19.214 16.704 23.0043C16.704 26.7947 19.925 29.8674 23.8993 29.8674C27.8712 29.8674 31.0922 26.7947 31.0922 23.0043C31.0922 19.214 27.8736 16.1435 23.8993 16.1435Z" fill="white" fill-opacity="0.7"/>
</svg>
